<svg xmlns="http://www.w3.org/2000/svg" xmlns:xlink="http://www.w3.org/1999/xlink" viewBox="0 0 120.98 366.6"><defs><style>.cls-1{fill:#05057d;}.cls-2{fill:#07089e;}.cls-3{fill:url(#linear-gradient);}.cls-4{fill:#0a0ac2;}.cls-5{fill:#0707a5;}.cls-6{fill:#3329ff;}.cls-7{fill:#0808b6;}.cls-8{fill:url(#linear-gradient-2);}.cls-9{fill:#04057b;}</style><linearGradient id="linear-gradient" x1="90.88" y1="249.72" x2="90.88" y2="50.38" gradientUnits="userSpaceOnUse"><stop offset="0" stop-color="#0709b3"/><stop offset="1" stop-color="#030663"/></linearGradient><linearGradient id="linear-gradient-2" x1="8.15" y1="366.6" x2="8.15" y2="99.16" gradientUnits="userSpaceOnUse"><stop offset="0" stop-color="#0a0aca"/><stop offset="1" stop-color="#030663"/></linearGradient></defs><title>icono</title><g id="Capa_2" data-name="Capa 2"><g id="Layer_2" data-name="Layer 2"><polygon class="cls-1" points="50.19 28.37 66.72 39.68 120.98 11.31 104.44 0 50.19 28.37"/><polygon class="cls-2" points="66.72 68.03 50.19 56.71 50.19 28.37 66.72 39.68 66.72 68.03"/><polygon class="cls-3" points="82.66 238.41 99.19 249.72 99.19 50.38 82.56 59.45 82.66 238.41"/><polygon class="cls-4" points="50.19 256.08 66.72 267.4 66.72 295.62 50.19 284.31 50.19 256.08"/><polygon class="cls-5" points="82.66 238.41 50.19 256.08 66.72 267.4 99.19 249.72 82.66 238.41"/><polygon class="cls-6" points="99.19 50.38 99.19 249.72 66.72 267.4 66.72 295.62 120.98 267.28 120.98 11.31 66.72 39.68 66.72 68.03 99.19 50.38"/><polygon class="cls-6" points="38.09 327.54 38.09 128.2 70.56 110.52 70.56 82.3 16.3 110.63 16.3 366.6 70.56 338.23 70.56 309.89 38.09 327.54"/><polygon class="cls-7" points="70.56 309.89 54.26 298.42 38.13 307.17 38.09 327.54 70.56 309.89"/><polygon class="cls-8" points="16.3 366.6 0 355.13 0 99.16 16.3 110.63 16.3 366.6"/><polygon class="cls-9" points="70.56 82.3 54.26 70.82 0 99.16 16.3 110.63 70.56 82.3"/></g></g></svg>