<?xml version="1.0" encoding="utf-8"?>
<!-- Generator: Adobe Illustrator 21.0.0, SVG Export Plug-In . SVG Version: 6.00 Build 0)  -->
<svg version="1.1" id="Capa_1" xmlns="http://www.w3.org/2000/svg" xmlns:xlink="http://www.w3.org/1999/xlink" x="0px" y="0px"
	 viewBox="0 0 16.6 16.6" style="enable-background:new 0 0 16.6 16.6;" xml:space="preserve">
<style type="text/css">
	.st0{fill:#FFFFFF;}
</style>
<g>
	<g>
		<path class="st0" d="M10,13.5c-3.6,1.5-7.2-2.1-5.8-5.8c0.4-1.1,1.3-1.9,2.4-2.4c3.6-1.5,7.2,2.1,5.8,5.8
			C11.9,12.2,11.1,13,10,13.5z M9.5,2.2V1.6h0c0.9,0,0.8-0.4,0.8-0.8S10.5,0,9.5,0H7.1C6.2,0,6.3,0.4,6.3,0.8S6.1,1.6,7.1,1.6h0v0.6
			c0,0-2.3,0.2-3.9,2L2.8,4.7c-1,1.1-1.5,2.5-1.7,4.1c-0.4,4.4,3.4,8.2,7.8,7.8c3.7-0.3,6.6-3.4,6.6-7.2C15.5,6.1,13.6,2.8,9.5,2.2z
			"/>
		<path class="st0" d="M9,10.3V6.4L8.4,5.6L7.6,6.4v3.9H9z"/>
	</g>
</g>
<path class="st0" d="M17.4,5.3"/>
</svg>
