<?xml version="1.0" encoding="utf-8"?>
<!-- Generator: Adobe Illustrator 21.0.0, SVG Export Plug-In . SVG Version: 6.00 Build 0)  -->
<svg version="1.1" id="Capa_1" xmlns="http://www.w3.org/2000/svg" xmlns:xlink="http://www.w3.org/1999/xlink" x="0px" y="0px"
	 viewBox="0 0 434 412.4" style="enable-background:new 0 0 434 412.4;" xml:space="preserve">
<style type="text/css">
	.st0{fill:#FFFFFF;}
</style>
<title>Recurso 1</title>
<g id="Capa_2">
	<g id="Capa_1-2">
		<path class="st0" d="M122,1.8c-7.8,2.5-16,6.1-16,7c0,0.4-2.1,1.3-4.7,2c-2.7,0.7-5.3,1.7-7.8,3c-1.6,0.9-5.8,2.7-9.2,4.1
			S78,20.6,78,21s-0.6,0.8-1.4,0.8c-2.3,0-17.5,10.1-22.3,14.7c-2.4,2.4-5,4.3-5.8,4.3c-2.2,0-19.7,19.3-23.2,25.7
			c-1.8,3.2-3.6,6.4-3.9,7c-0.5,0.8-1.4,1.3-2.3,1.3c-0.9,0-4.1,1.8-7.1,4.1C5.1,84.1,0,93,0,99.9s5,15.1,12.4,20.8
			c6.7,5.1,22.3,19.7,23.6,22.1c0.6,1.1-1,4.2-6,11.5c-3.8,5.5-6.9,10.7-7,11.6c-0.1,1.1-0.6,2.1-1.4,2.8c-0.9,0.8-1.2,2.6-0.8,6.1
			c0.4,4,0.1,5.3-1.3,6.3c-1.5,1.2-1.5,1.4-0.1,2.6c0.8,0.7,1.1,1.7,0.9,2.7c-0.2,1.3,0,2.6,0.6,3.8c1,1.8,0.9,3.5-0.4,8.7
			c-1.2,5.4-1.9,10.8-2.2,16.3c-0.4,9-0.2,10.1,1.9,13.2c3.9,5.8,7.2,4.8,18.9-5.8c4.2-3.7,8.2-6.8,8.9-6.8s2.7,1,4.4,2.3
			c1.4,1.1,3,2.1,4.6,2.9c1,0.4,1.5,1.9,1.4,4.9c0,6.8,2.2,8.3,11.4,7.5c9.9-0.9,14.2,0,14.2,2.9c0,1.3-0.5,2.5-1.4,3.4
			c-1.1,1.2-1.8,2.7-2.1,4.3c-1.1,3-2.6,5.8-4.5,8.4c-3.1,4.5-3.7,6-3.1,8.2c0.4,1.5,0.6,6.7,0.3,11.5c-0.3,5.8-0.1,9.2,0.7,10
			c0.8,1.2,1.2,2.7,1.1,4.1c0.2,2.5,1,5,2.1,7.3l2.1,4.3l-3.1,4.9c-1.8,2.8-3.1,6.1-3.1,8c0,1.7-0.4,3.5-1,5.1
			c-0.7,1.4-0.7,3,0.1,4.3c0.8,1.4,0.8,3.1,0,4.5c-0.8,1.6-0.7,2.1,0.5,2.6c1,0.4,1.3,1.3,0.9,2.6s-0.2,2,0.8,2c2.8,0,3.6,5,1.1,7.4
			c-0.8,0.9-1.3,1.6-0.9,1.6s-0.9,1.6-2.8,3.5c-4.3,4.4-6,10.1-5.9,19.4c0.1,4.1,0.3,7.5,0.4,7.6c1.7,0.4,3.4,0.7,5.1,0.7
			c3.1,0.3,5.2,1.2,6.2,2.4c1.8,2.6,12.8,2.7,16.4,0.2c1.9-1.4,2.8-1.5,4.5-0.5c1.2,0.6,2.3,1.2,2.6,1.3c0.8,0.2,1.6,0.5,2.3,0.9
			c6.3,2.7,22.3-10.3,24.2-19.7c0.5-2.6,3.9-7.2,4.3-5.9c0.2,0.6,1.5,1.1,2.8,1.1c1.4,0.1,2.8,0.8,3.6,2c1,1.3,2.5,2,4.1,2
			c1.8,0,3.5,0.5,5,1.4c1.2,0.8,4.8,1.8,8,2.1s6,1.1,6.3,1.6s2.7,0.9,5.5,0.9c3.7,0,4.9,0.4,4.9,1.5s1,1.5,2.8,1.5s3.8,1.1,5.7,3
			l2.8,2.9l-3.5,3.3c-4.8,4.5-6.8,8.7-7.5,16.3c-0.6,6.3-0.5,6.5,2.8,9.6s3.6,3.1,10.5,2.7c4-0.2,7.1-0.1,6.8,0.3
			c-0.7,1.1,5.1,5.7,8.1,6.3c2.6,0.3,5.3,0.2,7.9-0.3c4-0.7,5.6-0.5,9.5,1.2c5.4,2.4,15,3.1,20.3,1.5c3.3-1,4-1.8,7.9-10.5
			c3.7-8.1,4.7-9.6,7.7-10.9c1.8-0.8,3.7-1.2,5.7-1.4c1.3,0,2.6-0.6,2.8-1.3c0.4-0.9,0.6-0.9,0.6,0c0.1,1.9,3,0.3,4.6-2.6
			c0.8-1.4,1.4-2.1,1.5-1.4c0,2.1,2.8,0.3,4.9-3.3c1.1-1.9,2.7-3.4,3.5-3.4c1.2-0.3,2.2-1.1,2.7-2.2c1.1-1.8,2.3-3.6,3.6-5.2
			c1.8-2.2,3.3-4.7,4.5-7.3c1.1-2.4,2.9-4.8,3.9-5.4c1-0.4,1.7-1.3,1.9-2.4c0-0.8,0.4-1.5,0.9-1.5s1.5-1.6,2.1-3.5s1.8-3.5,2.6-3.5
			s1.4-1.1,1.4-3.3c0.1-5.6,3-7.9,11-8.5c3.9-0.2,7-0.8,7-1.2s1.2-0.7,2.8-0.8c9.3-0.2,13-1.4,16.3-5.3c1.8-2.2,3.9-3.9,4.6-3.9
			c1,0,1.2-0.7,0.8-1.9s0-2.1,1-2.5c1.9-0.7,2-2.6,0-2.6s-1.9-0.4,0-4c1.4-2.7,1.4-3.3,0.1-5.9c-1.1-2.2-1.8-4.6-2.2-7
			c-0.4-2.6-1.3-4.2-2.4-4.6s-2.3-1.9-3-3.5c-1.6-3.8-9.7-9.8-17.8-13c-7.5-3.1-10.2-5.2-10.2-8.2c0-1.3-0.5-6.4-1-11.4
			c-0.9-8.2-1.6-10.5-7.6-23c-3.7-7.6-8.4-18-10.6-22.9s-4.8-10.4-5.8-12c-3.4-5.6-9-21.8-9-25.9c-0.2-2.2-0.7-4.3-1.5-6.3
			c-0.8-2-1.3-4.1-1.5-6.2c0-1.4-1.2-5.1-2.6-8.1c-1.8-4.1-3.3-8.4-4.5-12.8c-1.8-6.9-5.5-14.2-7.9-15.7c-0.7-0.7-1-1.6-1-2.6
			c0-1.8-1.8-5.8-3.1-6.9c-1-1.8-1.8-3.6-2.4-5.5c-1.2-3.1-2.7-6-4.3-8.9c-1.6-2.8-2.9-5.9-3.9-9c-0.8-2.8-4.1-10.5-7.3-17.1
			s-6.1-13-6.4-14.1c-0.6-1.5-1.5-2.8-2.6-3.9c-1-0.9-1.7-2.1-2-3.4c0-0.9-1.4-3.6-3-6.1s-3-5.2-3-6c-0.1-4.2-16.1-19.1-26.9-25
			c-2.1-1.2-4.2-2.5-6.2-4c-5.1-3.8-6.7-4.7-14.9-8.7l-7.5-3.7l-17-0.3C130.7-0.1,127.7,0.1,122,1.8z"/>
		<polygon class="st0" points="259.1,46.9 193.7,76 193.7,17.7 		"/>
		<polygon class="st0" points="278.6,76 193.7,114.5 193.7,37.4 		"/>
		<polygon class="st0" points="298,106.1 193.7,149.8 193.7,62.4 		"/>
		<polygon class="st0" points="317.4,141.3 193.7,185 193.7,97.6 		"/>
		<polygon class="st0" points="336.9,176.5 193.7,220.2 193.7,132.8 		"/>
		<polygon class="st0" points="356.3,211.7 193.7,255.4 193.7,168.1 		"/>
		<polygon class="st0" points="375.7,247 193.7,290.6 193.7,203.3 		"/>
		<polygon class="st0" points="395.1,282.2 193.7,325.9 193.7,238.5 		"/>
		<polygon class="st0" points="414.6,317.4 193.7,361.1 193.7,273.7 		"/>
	</g>
</g>
</svg>
